<svg width="145" height="47" viewBox="0 0 145 47" fill="none" xmlns="http://www.w3.org/2000/svg">
<path d="M24.7072 10.5857H0.341797V34.3164H24.7072V10.5857Z" fill="#FFAA2B"/>
<path d="M22.8031 12.491H2.19824V32.4113H22.8031V12.491Z" fill="#3B3323"/>
<g opacity="0.302">
<g opacity="0.302">
<path opacity="0.302" d="M17.7734 17.2265C17.8221 17.2589 16.4062 18.7402 16.4062 18.7402L18.2318 20.1785L16.5527 21.4257L12.3535 17.373L10.3516 17.8613L9.08203 21.914L6.78711 27.4316L13.8184 32.4121H22.8027V21.2792C22.8027 21.2792 17.7248 17.1941 17.7734 17.2265Z" fill="black"/>
</g>
</g>
<g opacity="0.302">
<g opacity="0.302">
<path opacity="0.302" d="M22.8031 12.4902H2.19824V13.1737H22.8031V12.4902Z" fill="black"/>
</g>
</g>
<path d="M9.57114 24.5778L8.70596 27.427H6.81152L10.0335 17.373H12.3755L15.6423 27.427H13.6732L12.7633 24.5778H9.57114ZM12.4501 23.1906L11.6595 20.7144C11.4656 20.1028 11.3015 19.4166 11.1523 18.8349H11.1225C10.9733 19.4166 10.8242 20.1177 10.6452 20.7144L9.86948 23.1906H12.4501Z" fill="#FFAA2B"/>
<path d="M18.3271 18.1337C18.3271 18.6856 17.9243 19.1182 17.2829 19.1182C16.6713 19.1182 16.2686 18.6856 16.2686 18.1337C16.2686 17.5668 16.6862 17.1343 17.2978 17.1343C17.9243 17.1343 18.3121 17.5668 18.3271 18.1337ZM16.373 27.4269V20.1624H18.2227V27.4269H16.373Z" fill="#FFAA2B"/>
<path d="M51.7189 10.5857H28.3281V34.3164H51.7189V10.5857Z" fill="#7EBCF9"/>
<path d="M49.891 12.491H30.1104V32.4113H49.891V12.491Z" fill="#30267E"/>
<g opacity="0.302">
<g opacity="0.302">
<path opacity="0.302" d="M45.625 20.4492L42.8125 21.2793L39.2031 17.7637L35.1719 18.2031L35.0312 22.0117L34.0938 27.4316L41.6875 32.4121H49.8906V23.7207L45.625 20.4492Z" fill="black"/>
</g>
</g>
<g opacity="0.302">
<g opacity="0.302">
<path opacity="0.302" d="M49.891 12.4902H30.1104V13.1737H49.891V12.4902Z" fill="black"/>
</g>
</g>
<path d="M34.0909 17.5072C34.7209 17.3878 35.5945 17.2983 36.783 17.2983C38.0719 17.2983 39.017 17.5818 39.6328 18.1188C40.2055 18.611 40.5779 19.4016 40.5779 20.3414C40.5779 21.296 40.2915 22.0866 39.7473 22.6236C39.0457 23.3546 37.943 23.6977 36.6971 23.6977C36.3678 23.6977 36.067 23.6827 35.8379 23.638V27.4269H34.0908V17.5072H34.0909ZM35.8379 22.191C36.0527 22.2507 36.3391 22.2656 36.6971 22.2656C38.0145 22.2656 38.8165 21.5943 38.8165 20.4159C38.8165 19.2971 38.0718 18.7005 36.8546 18.7005C36.3677 18.7005 36.024 18.7453 35.8379 18.79V22.191Z" fill="#7EBCF9"/>
<path d="M41.3651 25.7412C41.7661 25.9948 42.525 26.2633 43.1551 26.2633C43.9284 26.2633 44.2721 25.9351 44.2721 25.4578C44.2721 24.9655 43.9857 24.712 43.1265 24.3987C41.7661 23.9065 41.1933 23.1308 41.2076 22.2806C41.2076 20.9977 42.2243 19.9983 43.8425 19.9983C44.6158 19.9983 45.2888 20.2071 45.6898 20.4309L45.3461 21.7286C45.0454 21.5496 44.4869 21.3109 43.8712 21.3109C43.2411 21.3109 42.8974 21.6242 42.8974 22.0717C42.8974 22.5341 43.2267 22.7579 44.1146 23.086C45.3748 23.5634 45.9619 24.2346 45.9762 25.3086C45.9762 26.6213 44.9881 27.576 43.1408 27.576C42.296 27.576 41.537 27.3672 41.0215 27.0688L41.3651 25.7412Z" fill="#7EBCF9"/>
<path d="M105.531 11.4688H82.4688V34.5312H105.531V11.4688Z" fill="#FF26BE"/>
<path d="M105.508 35H82.4918C82.2202 35 82 34.7798 82 34.5082V11.4918C82 11.2202 82.2202 11 82.4918 11H105.508C105.78 11 106 11.2202 106 11.4918V34.5082C106 34.7798 105.78 35 105.508 35ZM82.9844 34.0156H105.016V11.9844H82.9844V34.0156Z" fill="#BF1D8F"/>
<path d="M103.984 13.0156H84.0156V32.9844H103.984V13.0156Z" fill="#2E001F"/>
<path d="M104.5 33.0082C104.5 33.2798 104.28 33.5 104.008 33.5H84.0387C83.7671 33.5 83.5469 33.2798 83.5469 33.0082V13.0387C83.5469 12.7671 83.7671 12.5469 84.0387 12.5469H104.008C104.28 12.5469 104.5 12.7671 104.5 13.0387V33.0082ZM84.5312 32.4688H103.469V13.5312H84.5312V32.4688Z" fill="#230017"/>
<path d="M94.4403 17.6504H92.6414L90.7104 21.6893L88.7534 17.6504H86.9003L89.5229 22.8947L86.8066 28.2646H88.6379L90.6035 24.1493L92.592 28.2646H94.5741L91.7745 22.8316L94.4403 17.6504ZM99.4134 17.6504V20.3493C99.4134 20.3493 99.1022 20.3493 98.895 20.3493C97.126 20.3493 94.9874 21.4901 94.9874 24.404C94.9874 26.6566 96.1288 28.3497 98.5597 28.3497C100.35 28.3497 101.193 27.7305 101.193 27.7305V17.6504H99.4134ZM99.4117 26.7992C99.4117 26.7992 99.2068 26.8894 98.7233 26.8894C98.2399 26.8894 96.7568 26.6764 96.7568 24.3245C96.7568 21.973 98.4611 21.7844 98.8708 21.7844C99.2806 21.7844 99.4117 21.8992 99.4117 21.8992V26.7992V26.7992Z" fill="#FFD9F2"/>
<path d="M78.7189 10.5859H55.3281V34.3166H78.7189V10.5859Z" fill="#EB43A3"/>
<path d="M76.89 12.491H57.1094V32.4113H76.89V12.491Z" fill="#412534"/>
<g opacity="0.302">
<g opacity="0.302">
<path opacity="0.302" d="M72.2031 16.8359L71.2656 21.2305L64.3281 17.373L63.7188 21.9141L62.5469 27.4316L69.3438 32.4121H76.8906V20.4004L72.2031 16.8359Z" fill="black"/>
</g>
</g>
<g opacity="0.302">
<g opacity="0.302">
<path opacity="0.302" d="M76.89 12.4902H57.1094V13.1737H76.89V12.4902Z" fill="black"/>
</g>
</g>
<path d="M64.3522 17.373V27.427H62.5908V17.373H64.3522Z" fill="#EB43A3"/>
<path d="M72.1569 16.8359V25.3833C72.1569 26.1291 72.1855 26.9346 72.2142 27.4269H70.639L70.5674 26.2783H70.5388C70.1235 27.0838 69.2786 27.591 68.2619 27.591C66.6007 27.591 65.2833 26.1143 65.2833 23.8768C65.269 21.4453 66.7296 19.9984 68.4051 19.9984C69.3646 19.9984 70.052 20.4161 70.367 20.9531H70.3956V16.8359H72.1569ZM70.3955 23.1905C70.3955 23.0414 70.3812 22.8624 70.3526 22.7132C70.1951 21.9972 69.6366 21.4154 68.8346 21.4154C67.7033 21.4154 67.0733 22.4596 67.0733 23.817C67.0733 25.1446 67.7033 26.1142 68.8204 26.1142C69.5363 26.1142 70.1664 25.607 70.3383 24.8165C70.3812 24.6524 70.3956 24.4734 70.3956 24.2794V23.1905H70.3955Z" fill="#EB43A3"/>
<path d="M130.942 10.5879H113.057C111.025 10.5879 109.377 12.2688 109.377 14.3424V32.5893C109.377 34.6629 111.025 36.3438 113.057 36.3438H130.942C132.974 36.3438 134.622 34.6629 134.622 32.5893V14.3424C134.622 12.2688 132.974 10.5879 130.942 10.5879Z" fill="#525967"/>
<path d="M130.942 11.7142C131.625 11.7142 132.28 11.9911 132.763 12.484C133.246 12.9769 133.518 13.6454 133.518 14.3424V32.5893C133.518 33.2863 133.246 33.9548 132.763 34.4477C132.28 34.9406 131.625 35.2175 130.942 35.2175H113.057C112.374 35.2175 111.719 34.9406 111.235 34.4477C110.752 33.9548 110.481 33.2863 110.481 32.5893V14.3424C110.481 13.6454 110.752 12.9769 111.235 12.484C111.719 11.9911 112.374 11.7142 113.057 11.7142H130.942ZM130.942 10.5879H113.057C112.081 10.5879 111.145 10.9835 110.455 11.6876C109.765 12.3917 109.377 13.3466 109.377 14.3424V32.5893C109.377 33.5851 109.765 34.54 110.455 35.2441C111.145 35.9482 112.081 36.3438 113.057 36.3438H130.942C131.918 36.3438 132.854 35.9482 133.544 35.2441C134.234 34.54 134.622 33.5851 134.622 32.5893V14.3424C134.622 13.3466 134.234 12.3917 133.544 11.6876C132.854 10.9835 131.918 10.5879 130.942 10.5879V10.5879Z" fill="#454B57"/>
<path d="M118.853 33.0962C119.267 33.0962 119.676 33.0132 120.058 32.8518C120.439 32.6905 120.786 32.4541 121.078 32.156C121.37 31.8579 121.602 31.504 121.76 31.1146C121.918 30.7251 122 30.3077 122 29.8861V26.676H118.853C118.019 26.676 117.219 27.0142 116.629 27.6162C116.039 28.2182 115.707 29.0347 115.707 29.8861C115.707 30.7375 116.039 31.554 116.629 32.156C117.219 32.758 118.019 33.0962 118.853 33.0962V33.0962Z" fill="#0ACF83"/>
<path d="M115.707 23.466C115.707 22.6146 116.039 21.7981 116.629 21.1961C117.219 20.5941 118.019 20.2559 118.853 20.2559H122V26.6762H118.853C118.019 26.6762 117.219 26.338 116.629 25.736C116.039 25.1339 115.707 24.3174 115.707 23.466Z" fill="#A259FF"/>
<path d="M115.707 17.0455C115.707 16.1942 116.039 15.3777 116.629 14.7757C117.219 14.1737 118.019 13.8354 118.853 13.8354H122V20.2556H118.853C118.019 20.2556 117.219 19.9174 116.629 19.3154C116.039 18.7134 115.707 17.8969 115.707 17.0455V17.0455Z" fill="#F24E1E"/>
<path d="M122 13.854H125.146C125.981 13.854 126.781 14.1922 127.371 14.7942C127.961 15.3963 128.293 16.2128 128.293 17.0641C128.293 17.9155 127.961 18.732 127.371 19.3341C126.781 19.9361 125.981 20.2743 125.146 20.2743H122V13.854Z" fill="#FF7262"/>
<path d="M128.293 23.466C128.293 24.1009 128.108 24.7216 127.763 25.2495C127.417 25.7774 126.925 26.1889 126.35 26.4318C125.776 26.6748 125.143 26.7384 124.533 26.6145C123.922 26.4907 123.362 26.1849 122.922 25.736C122.482 25.287 122.182 24.715 122.06 24.0923C121.939 23.4696 122.001 22.8241 122.24 22.2376C122.478 21.651 122.881 21.1496 123.398 20.7969C123.916 20.4441 124.524 20.2559 125.146 20.2559C125.981 20.2559 126.781 20.5941 127.371 21.1961C127.961 21.7981 128.293 22.6146 128.293 23.466Z" fill="#1ABCFE"/>
</svg>
